<svg xmlns="http://www.w3.org/2000/svg" viewBox="0 0 64 64">
  <rect width="64" height="64" rx="14" fill="#0b1019"/>
  <rect x="4" y="4" width="18.66" height="8" rx="2.5" fill="#00b5e2"/>
  <rect x="22.66" y="4" width="18.68" height="8" fill="#ef3340"/>
  <rect x="41.34" y="4" width="18.66" height="8" rx="2.5" fill="#509e2f"/>
  <rect x="8" y="15" width="48" height="41" rx="9" fill="#121a27"/>
  <rect x="12" y="19" width="20" height="17" fill="#1c2a3f"/>
  <rect x="32" y="19" width="20" height="17" fill="#141d2c"/>
  <rect x="12" y="36" width="20" height="16" fill="#141d2c"/>
  <rect x="32" y="36" width="20" height="16" fill="#1c2a3f"/>
  <path d="M23 49h22v5H23z" fill="#f7efe1"/>
  <path d="M25 44h18l-1.8-5.1c-.9-2.5-3-4.2-5.6-4.8l-5.7-1.2 4-5.5-1.8-5.3-5.6 3.1-3.7 8.1 2.8 3.1c1.2 1.3 1.6 3.2 1 4.9L25 44z" fill="#f7efe1"/>
  <circle cx="31" cy="27" r="1.8" fill="#0b1019"/>
  <path d="M24.2 49h19.6" stroke="#b79264" stroke-width="1.6" stroke-linecap="round"/>
</svg>