<svg xmlns="http://www.w3.org/2000/svg" viewBox="0 0 1200 630">
  <defs>
    <linearGradient id="bg" x1="0" x2="1" y1="0" y2="1">
      <stop offset="0" stop-color="#fff6ea"/>
      <stop offset="1" stop-color="#fffdf9"/>
    </linearGradient>
    <linearGradient id="main" x1="0" x2="1" y1="0" y2="1">
      <stop offset="0" stop-color="#ed2939"/>
      <stop offset="0.55" stop-color="#ff7b43"/>
      <stop offset="1" stop-color="#f3b63e"/>
    </linearGradient>
  </defs>

  <rect width="1200" height="630" fill="url(#bg)"/>
  <circle cx="150" cy="40" r="250" fill="#00a3e0" opacity=".17"/>
  <circle cx="1080" cy="90" r="260" fill="#ed2939" opacity=".13"/>
  <circle cx="1080" cy="560" r="220" fill="#2f9e44" opacity=".12"/>

  <rect x="70" y="56" width="1060" height="18" rx="9" fill="#fff"/>
  <rect x="70" y="56" width="353" height="18" rx="9" fill="#00a3e0"/>
  <rect x="423" y="56" width="354" height="18" fill="#ed2939"/>
  <rect x="777" y="56" width="353" height="18" rx="9" fill="#2f9e44"/>

  <rect x="84" y="100" width="1032" height="450" rx="38" fill="#ffffff" stroke="#eadfce" stroke-width="2"/>

  <g transform="translate(132 152)">
    <circle cx="78" cy="78" r="75" fill="#fff" stroke="#f0d8c4" stroke-width="6"/>
    <path d="M134 30c-14 0-23 8-29 20l-18-10-7 13 18 10c-2 17 5 27 5 27l-14 17v12h83v-16h-41l8-10c14-3 27-13 27-30 0-18-9-33-22-33z" fill="url(#main)"/>
    <text x="16" y="160" font-family="Inter,Segoe UI,Arial" font-size="25" font-weight="900" fill="#a81e26">ABDULOV</text>
    <text x="32" y="186" font-family="Inter,Segoe UI,Arial" font-size="15" fill="#6a6583">CHESS CLUB</text>
  </g>

  <text x="350" y="204" font-family="Playfair Display,Georgia,serif" font-size="66" font-weight="700" fill="#2f2844">Abdulov Chess Club</text>
  <text x="350" y="260" font-family="Inter,Segoe UI,Arial" font-size="30" fill="#5f587b">International Master Orkhan Abdulov</text>
  <text x="350" y="304" font-family="Inter,Segoe UI,Arial" font-size="23" fill="#5f587b">Kids | Adults | Private Lessons | Tournament Preparation</text>

  <rect x="350" y="352" width="710" height="140" rx="20" fill="#fff8ef" stroke="#f1dbc6"/>
  <text x="380" y="402" font-family="Inter,Segoe UI,Arial" font-size="28" font-weight="700" fill="#3b3256">FIDE ID: 13402714 | Title: IM | Federation: AZE</text>
  <text x="380" y="444" font-family="Inter,Segoe UI,Arial" font-size="24" fill="#5f587b">Instagram: @abdulov_chess_club</text>
  <text x="380" y="526" font-family="Inter,Segoe UI,Arial" font-size="21" fill="#5f587b">abdulov.az</text>
</svg>